<mxfile host="app.diagrams.net" modified="2021-07-21T06:25:30.182Z" agent="5.0 (Windows NT 10.0; Win64; x64) AppleWebKit/537.36 (KHTML, like Gecko) Chrome/91.0.4472.164 Safari/537.36" etag="TCPRIHZ1ZY_ebXn112qy" version="14.8.6" type="github">
  <diagram id="ias_9v_YqqIfuC1sGkX4" name="Page-1">
    <mxGraphModel dx="1422" dy="762" grid="1" gridSize="10" guides="1" tooltips="1" connect="1" arrows="1" fold="1" page="1" pageScale="1" pageWidth="827" pageHeight="1169" math="0" shadow="0">
      <root>
        <mxCell id="0" />
        <mxCell id="1" parent="0" />
        <mxCell id="AJn2Z4O8KOHtu1HilTnl-1" value="" style="rounded=0;whiteSpace=wrap;html=1;" vertex="1" parent="1">
          <mxGeometry x="80" y="130" width="700" height="210" as="geometry" />
        </mxCell>
        <mxCell id="AJn2Z4O8KOHtu1HilTnl-2" value="品种信息" style="rounded=0;whiteSpace=wrap;html=1;" vertex="1" parent="1">
          <mxGeometry x="80" y="130" width="160" height="210" as="geometry" />
        </mxCell>
        <mxCell id="AJn2Z4O8KOHtu1HilTnl-3" value="采退出库返利金额" style="rounded=0;whiteSpace=wrap;html=1;" vertex="1" parent="1">
          <mxGeometry x="240" y="130" width="210" height="100" as="geometry" />
        </mxCell>
        <mxCell id="AJn2Z4O8KOHtu1HilTnl-4" value="&lt;span&gt;采购入库返利金额&lt;/span&gt;" style="rounded=0;whiteSpace=wrap;html=1;" vertex="1" parent="1">
          <mxGeometry x="240" y="230" width="210" height="110" as="geometry" />
        </mxCell>
        <mxCell id="AJn2Z4O8KOHtu1HilTnl-5" value="" style="rounded=0;whiteSpace=wrap;html=1;" vertex="1" parent="1">
          <mxGeometry x="450" y="130" width="330" height="100" as="geometry" />
        </mxCell>
        <mxCell id="AJn2Z4O8KOHtu1HilTnl-6" value="" style="rounded=0;whiteSpace=wrap;html=1;" vertex="1" parent="1">
          <mxGeometry x="450" y="230" width="330" height="110" as="geometry" />
        </mxCell>
        <mxCell id="AJn2Z4O8KOHtu1HilTnl-7" value="采退批次" style="rounded=0;whiteSpace=wrap;html=1;" vertex="1" parent="1">
          <mxGeometry x="450" y="130" width="330" height="30" as="geometry" />
        </mxCell>
        <mxCell id="AJn2Z4O8KOHtu1HilTnl-8" value="采退批次" style="rounded=0;whiteSpace=wrap;html=1;" vertex="1" parent="1">
          <mxGeometry x="450" y="160" width="330" height="30" as="geometry" />
        </mxCell>
        <mxCell id="AJn2Z4O8KOHtu1HilTnl-9" value="采退批次" style="rounded=0;whiteSpace=wrap;html=1;" vertex="1" parent="1">
          <mxGeometry x="450" y="190" width="330" height="40" as="geometry" />
        </mxCell>
        <mxCell id="AJn2Z4O8KOHtu1HilTnl-10" value="采购批次" style="rounded=0;whiteSpace=wrap;html=1;" vertex="1" parent="1">
          <mxGeometry x="450" y="230" width="330" height="30" as="geometry" />
        </mxCell>
        <mxCell id="AJn2Z4O8KOHtu1HilTnl-11" value="采购批次" style="rounded=0;whiteSpace=wrap;html=1;" vertex="1" parent="1">
          <mxGeometry x="450" y="260" width="330" height="40" as="geometry" />
        </mxCell>
        <mxCell id="AJn2Z4O8KOHtu1HilTnl-12" value="采购批次" style="rounded=0;whiteSpace=wrap;html=1;" vertex="1" parent="1">
          <mxGeometry x="450" y="300" width="330" height="40" as="geometry" />
        </mxCell>
      </root>
    </mxGraphModel>
  </diagram>
</mxfile>
